<svg xmlns="http://www.w3.org/2000/svg">
<defs>
    <symbol id="info" width="55" height="54" viewBox="0 0 55 54" fill="none">
        <path fill-rule="evenodd" clip-rule="evenodd" d="M54.3666 27.146C54.3666 41.8052 42.2597 53.6888 27.3251 53.6888C12.3906 53.6888 0.283691 41.8052 0.283691 27.146C0.283691 12.4869 12.3906 0.603271 27.3251 0.603271C42.2597 0.603271 54.3666 12.4869 54.3666 27.146ZM52.2033 27.146C52.2033 40.6324 41.0649 51.5654 27.3251 51.5654C13.5853 51.5654 2.44701 40.6324 2.44701 27.146C2.44701 13.6596 13.5853 2.72669 27.3251 2.72669C41.0649 2.72669 52.2033 13.6596 52.2033 27.146ZM22.9985 21.8375V22.8992H25.1618L25.1618 39.8865H22.9985V40.9483H25.1618H29.4885H31.6518V39.8865H29.4885V21.8375H25.1618H22.9985ZM30.5701 16.5289C30.5701 18.288 29.1173 19.7141 27.3251 19.7141C25.533 19.7141 24.0802 18.288 24.0802 16.5289C24.0802 14.7698 25.533 13.3438 27.3251 13.3438C29.1173 13.3438 30.5701 14.7698 30.5701 16.5289Z" fill="#2B4074"/>
    </symbol>
    <symbol id="search" width="54" height="54" viewBox="0 0 54 54" fill="none">
        <path fill-rule="evenodd" clip-rule="evenodd" d="M36.1174 6.11644C43.4961 13.4951 44.0383 25.1602 37.8158 33.4035L53.9362 49.5239L50.112 53.3481L34.0438 37.28C25.7792 43.8846 13.8079 43.465 6.28839 35.9455C-1.79677 27.8603 -1.67363 14.6286 6.56344 6.39149C14.8005 -1.84558 28.0323 -1.96872 36.1174 6.11644ZM34.5877 7.64613C41.8437 14.902 41.7331 26.7767 34.3409 34.169C26.9487 41.5612 15.074 41.6717 7.81808 34.4158C0.562169 27.1599 0.672684 15.2852 8.06492 7.89297C15.4572 0.500731 27.3318 0.390217 34.5877 7.64613Z" fill="#2B4074"/>
    </symbol>
</defs>
</svg>
